<?xml version="1.0" encoding="utf-8"?>
<!-- Generator: Adobe Illustrator 16.0.0, SVG Export Plug-In . SVG Version: 6.00 Build 0)  -->
<svg version="1.2" baseProfile="tiny" id="Layer_1" xmlns="http://www.w3.org/2000/svg" xmlns:xlink="http://www.w3.org/1999/xlink"
	 x="0px" y="0px" width="791.96px" height="227.23px" viewBox="0 0 791.96 227.23" xml:space="preserve">
<g>
	<path fill="#1A1A1A" d="M17.537,113.503c0-26.361,9.396-48.807,27.927-67.338s40.978-27.927,67.339-27.927
		c26.36,0,48.807,9.396,67.338,27.927s27.928,40.977,27.928,67.338s-9.396,48.807-27.928,67.338s-40.978,27.927-67.338,27.927
		c-26.361,0-48.808-9.396-67.339-27.927S17.537,139.865,17.537,113.503z M48.857,113.503c0,17.487,6.264,32.625,18.792,45.153
		c12.527,12.528,27.666,18.792,45.153,18.792c17.486,0,32.625-6.264,45.153-18.792c12.527-12.528,18.792-27.666,18.792-45.153
		s-6.265-32.625-18.792-45.153c-12.528-12.528-27.667-18.792-45.153-18.792c-17.487,0-32.626,6.264-45.153,18.792
		C55.121,80.878,48.857,96.016,48.857,113.503z"/>
	<path fill="#1A1A1A" d="M268.095,22.153c26.361,0,48.024,8.613,65.251,26.1c17.487,17.226,26.1,38.889,26.1,65.25
		s-8.612,48.024-26.1,65.511c-17.227,17.226-38.89,25.839-65.251,25.839h-36.54V22.153H268.095z M262.875,53.473v120.061h5.22
		c17.487,0,31.843-5.481,43.065-16.704c11.224-11.223,16.966-25.839,16.966-43.326s-5.742-31.842-16.966-43.065
		c-11.223-11.223-25.578-16.965-43.065-16.965H262.875z"/>
	<path fill="#1A1A1A" d="M419.472,22.153c26.361,0,48.024,8.613,65.251,26.1c17.487,17.226,26.1,38.889,26.1,65.25
		s-8.612,48.024-26.1,65.511c-17.227,17.226-38.89,25.839-65.251,25.839h-36.54V22.153H419.472z M414.252,53.473v120.061h5.22
		c17.487,0,31.843-5.481,43.065-16.704c11.224-11.223,16.966-25.839,16.966-43.326s-5.742-31.842-16.966-43.065
		c-11.223-11.223-25.578-16.965-43.065-16.965H414.252z"/>
	<path fill="#1A1A1A" d="M620.439,22.153v31.32h-54.811v44.37h52.2v31.32h-52.2v44.37h54.811v31.32h-86.131V22.153H620.439z"/>
	<path fill="#1A1A1A" d="M683.077,22.153c26.361,0,48.024,8.613,65.251,26.1c17.487,17.226,26.1,38.889,26.1,65.25
		s-8.612,48.024-26.1,65.511c-17.227,17.226-38.89,25.839-65.251,25.839h-36.54V22.153H683.077z M677.857,53.473v120.061h5.22
		c17.487,0,31.843-5.481,43.065-16.704c11.224-11.223,16.966-25.839,16.966-43.326s-5.742-31.842-16.966-43.065
		c-11.223-11.223-25.578-16.965-43.065-16.965H677.857z"/>
</g>
</svg>
