<?xml version="1.0" encoding="utf-8"?>
<!-- Generator: Adobe Illustrator 16.0.0, SVG Export Plug-In . SVG Version: 6.00 Build 0)  -->
<svg version="1.2" baseProfile="tiny" id="Layer_1" xmlns="http://www.w3.org/2000/svg" xmlns:xlink="http://www.w3.org/1999/xlink"
	 x="0px" y="0px" width="1023.287px" height="794.96px" viewBox="0 0 1023.287 794.96" xml:space="preserve">
<g>
	<polygon fill="none" stroke="#1A1A1A" stroke-width="15" stroke-miterlimit="10" points="857.73,768.48 125.01,768.48 
		484.457,18.48 	"/>
	<g>
		<path fill="#1A1A1A" d="M35.565,452.276h20.452l12.91,37.835l33.361-37.835h22.753l-24.031,89.476H81.07l15.595-58.415
			l-35.023,38.219H61.13L46.814,483.72L31.22,541.752H11.535L35.565,452.276z"/>
		<path fill="#1A1A1A" d="M129.512,503.661c0-26.715,21.729-52.918,53.813-52.918c24.67,0,40.903,17.128,40.903,39.625
			c0,26.715-21.73,52.918-53.813,52.918C145.745,543.286,129.512,526.158,129.512,503.661z M203.776,491.646
			c0-13.293-8.053-22.752-22.752-22.752c-18.79,0-31.062,18.023-31.062,33.489c0,13.294,8.053,22.752,22.753,22.752
			C191.506,525.135,203.776,507.112,203.776,491.646z"/>
		<path fill="#1A1A1A" d="M252.855,452.276h18.151l26.075,56.881l15.339-56.881h19.43l-24.031,89.476h-16.745l-27.098-58.671
			l-15.723,58.671h-19.429L252.855,452.276z"/>
		<path fill="#1A1A1A" d="M353.32,452.276h66.852l-4.729,17.512h-47.295l-4.856,18.279h41.542l-4.729,17.256h-41.542l-5.113,18.918
			h48.062l-4.729,17.512h-67.49L353.32,452.276z"/>
		<path fill="#1A1A1A" d="M443.814,506.473l-18.534-54.197h21.858l10.481,37.069l30.677-37.069h23.775l-48.956,55.986l-9.075,33.49
			h-19.685L443.814,506.473z"/>
		<path fill="#1A1A1A" d="M521.4,452.276h28.377c12.782,0,21.602,2.557,28.121,9.076c4.602,4.602,6.902,10.609,6.902,18.406
			c0,22.241-19.046,34.896-43.46,34.896h-17l-7.286,27.099H497.37L521.4,452.276z M542.363,497.397
			c13.038,0,21.857-5.88,21.857-15.978c0-2.94-1.022-5.496-2.939-7.414c-2.685-2.684-6.392-3.962-12.271-3.962h-12.782
			l-7.285,27.354H542.363z"/>
		<path fill="#1A1A1A" d="M591.188,503.661c0-26.715,21.729-52.918,53.813-52.918c24.67,0,40.903,17.128,40.903,39.625
			c0,26.715-21.73,52.918-53.813,52.918C607.421,543.286,591.188,526.158,591.188,503.661z M665.452,491.646
			c0-13.293-8.053-22.752-22.752-22.752c-18.79,0-31.062,18.023-31.062,33.489c0,13.294,8.053,22.752,22.753,22.752
			C653.182,525.135,665.452,507.112,665.452,491.646z"/>
		<path fill="#1A1A1A" d="M699.193,452.276h20.451l2.301,60.588l36.046-60.843h16.873l4.091,60.843l34.768-60.588h22.241
			l-54.708,90.115h-18.279l-4.346-57.393l-35.023,57.393h-18.023L699.193,452.276z"/>
		<path fill="#1A1A1A" d="M849.763,452.276h66.852l-4.729,17.512H864.59l-4.856,18.279h41.542l-4.729,17.256h-41.542l-5.113,18.918
			h48.062l-4.729,17.512h-67.49L849.763,452.276z"/>
		<path fill="#1A1A1A" d="M934.761,452.276h32.595c13.294,0,22.369,2.94,28.377,8.948c4.474,4.474,6.902,10.737,6.902,18.023
			c0,8.564-2.939,15.978-8.181,21.219c-4.985,4.985-11.888,8.692-20.707,10.737l15.211,30.55h-22.369l-13.805-28.632h-14.7
			l-7.669,28.632H910.73L934.761,452.276z M960.325,495.736c7.67,0,14.188-1.917,18.023-5.752c2.301-2.301,3.707-5.369,3.707-9.076
			c0-3.068-0.896-5.241-2.812-7.158c-2.429-2.428-6.774-3.707-13.038-3.707h-16.489l-6.902,25.692H960.325z"/>
	</g>
</g>
</svg>
