<?xml version="1.0" encoding="utf-8"?>
<!-- Generator: Adobe Illustrator 16.0.0, SVG Export Plug-In . SVG Version: 6.00 Build 0)  -->
<svg version="1.2" baseProfile="tiny" id="Layer_1" xmlns="http://www.w3.org/2000/svg" xmlns:xlink="http://www.w3.org/1999/xlink"
	 x="0px" y="0px" width="791.961px" height="794.96px" viewBox="0 0 791.961 794.96" xml:space="preserve">
<g>
	<path fill="#C12910" d="M659.094,731.301c-157.995,114.246-429.929,7.925-607.375-237.473
		c-177.448-245.4,394.705-659.125,572.153-413.725C801.319,325.501,817.09,617.052,659.094,731.301z"/>
	<g>
		<path fill="#FFFFFF" stroke="#C12910" stroke-width="0.6918" stroke-miterlimit="10" d="M158.65,248.507h22.559v82.031h51.123
			v20.508H158.65V248.507z"/>
		<path fill="#FFFFFF" stroke="#C12910" stroke-width="0.6918" stroke-miterlimit="10" d="M249.326,248.507h77.344v20.068h-54.932
			v20.801h48.34v20.068h-48.34v21.533h55.664v20.068h-78.076V248.507z"/>
		<path fill="#FFFFFF" stroke="#C12910" stroke-width="0.6918" stroke-miterlimit="10" d="M382.63,247.775h20.801l43.945,103.271
			h-23.584l-9.375-22.998h-43.359l-9.375,22.998h-22.998L382.63,247.775z M406.36,308.126l-13.623-33.252l-13.623,33.252H406.36z"/>
		<path fill="#FFFFFF" stroke="#C12910" stroke-width="0.6918" stroke-miterlimit="10" d="M463.2,248.507h46.875
			c13.037,0,23.145,3.662,29.883,10.4c5.713,5.713,8.789,13.77,8.789,23.73c0,16.553-8.936,26.953-21.973,31.787l25.049,36.621
			h-26.367l-22.266-32.812h-17.432v32.812H463.2V248.507z M508.61,298.312c10.986,0,17.285-5.859,17.285-14.795
			c0-9.668-6.738-14.648-17.725-14.648h-22.412v29.443H508.61z"/>
		<path fill="#FFFFFF" stroke="#C12910" stroke-width="0.6918" stroke-miterlimit="10" d="M569.111,248.507h20.801l48.047,63.135
			v-63.135h22.266v102.539h-19.189l-49.658-65.186v65.186h-22.266V248.507z"/>
		<path fill="#FFFFFF" stroke="#C12910" stroke-width="0.6918" stroke-miterlimit="10" d="M171.908,424.295h24.316l26.953,43.359
			l26.953-43.359h24.316v102.539h-22.412v-66.943l-28.857,43.799h-0.586l-28.564-43.359v66.504h-22.119V424.295z"/>
		<path fill="#FFFFFF" stroke="#C12910" stroke-width="0.6918" stroke-miterlimit="10" d="M294.521,475.565
			c0-29.15,22.998-53.027,54.639-53.027s54.346,23.584,54.346,53.027c0,29.15-22.998,53.027-54.639,53.027
			S294.521,505.008,294.521,475.565z M379.921,475.565c0-17.578-12.891-32.227-31.055-32.227s-30.762,14.355-30.762,32.227
			c0,17.578,12.891,32.227,31.055,32.227S379.921,493.436,379.921,475.565z"/>
		<path fill="#FFFFFF" stroke="#C12910" stroke-width="0.6918" stroke-miterlimit="10" d="M423.576,424.295h46.875
			c13.037,0,23.145,3.662,29.883,10.4c5.713,5.713,8.789,13.77,8.789,23.73c0,16.553-8.936,26.953-21.973,31.787l25.049,36.621
			h-26.367l-22.266-32.812h-17.432v32.812h-22.559V424.295z M468.986,474.1c10.986,0,17.285-5.859,17.285-14.795
			c0-9.668-6.738-14.648-17.725-14.648h-22.412V474.1H468.986z"/>
		<path fill="#FFFFFF" stroke="#C12910" stroke-width="0.6918" stroke-miterlimit="10" d="M529.487,424.295h77.344v20.068h-54.932
			v20.801h48.34v20.068h-48.34v21.533h55.664v20.068h-78.076V424.295z"/>
	</g>
</g>
</svg>
