<?xml version="1.0" encoding="utf-8"?>
<!-- Generator: Adobe Illustrator 16.0.0, SVG Export Plug-In . SVG Version: 6.00 Build 0)  -->
<svg version="1.2" baseProfile="tiny" id="Layer_1" xmlns="http://www.w3.org/2000/svg" xmlns:xlink="http://www.w3.org/1999/xlink"
	 x="0px" y="0px" width="791.961px" height="794.96px" viewBox="0 0 791.961 794.96" xml:space="preserve">
<g>
	<g>
		<path fill="none" stroke="#C12910" stroke-width="11" stroke-linecap="round" stroke-linejoin="round" stroke-miterlimit="10" d="
			M167.158,243.81h22.559v82.031h51.123v20.508h-73.682V243.81z"/>
		<path fill="none" stroke="#C12910" stroke-width="11" stroke-linecap="round" stroke-linejoin="round" stroke-miterlimit="10" d="
			M257.834,243.81h77.344v20.068h-54.932v20.801h48.34v20.068h-48.34v21.533h55.664v20.068h-78.076V243.81z"/>
		<path fill="none" stroke="#C12910" stroke-width="11" stroke-linecap="round" stroke-linejoin="round" stroke-miterlimit="10" d="
			M391.138,243.077h20.801l43.945,103.271H432.3l-9.375-22.998h-43.359l-9.375,22.998h-22.998L391.138,243.077z M414.868,303.429
			l-13.623-33.252l-13.623,33.252H414.868z"/>
		<path fill="none" stroke="#C12910" stroke-width="11" stroke-linecap="round" stroke-linejoin="round" stroke-miterlimit="10" d="
			M471.708,243.81h46.875c13.037,0,23.145,3.662,29.883,10.4c5.713,5.713,8.789,13.77,8.789,23.73
			c0,16.553-8.936,26.953-21.973,31.787l25.049,36.621h-26.367l-22.266-32.812h-17.432v32.812h-22.559V243.81z M517.118,293.614
			c10.986,0,17.285-5.859,17.285-14.795c0-9.668-6.738-14.648-17.725-14.648h-22.412v29.443H517.118z"/>
		<path fill="none" stroke="#C12910" stroke-width="11" stroke-linecap="round" stroke-linejoin="round" stroke-miterlimit="10" d="
			M577.619,243.81h20.801l48.047,63.135V243.81h22.266v102.539h-19.189l-49.658-65.186v65.186h-22.266V243.81z"/>
		<path fill="none" stroke="#C12910" stroke-width="11" stroke-linecap="round" stroke-linejoin="round" stroke-miterlimit="10" d="
			M180.416,419.598h24.316l26.953,43.359l26.953-43.359h24.316v102.539h-22.412v-66.943l-28.857,43.799H231.1l-28.564-43.359v66.504
			h-22.119V419.598z"/>
		<path fill="none" stroke="#C12910" stroke-width="11" stroke-linecap="round" stroke-linejoin="round" stroke-miterlimit="10" d="
			M303.027,470.867c0-29.15,22.998-53.027,54.639-53.027s54.346,23.584,54.346,53.027c0,29.15-22.998,53.027-54.639,53.027
			S303.027,500.311,303.027,470.867z M388.428,470.867c0-17.578-12.891-32.227-31.055-32.227s-30.762,14.355-30.762,32.227
			c0,17.578,12.891,32.227,31.055,32.227S388.428,488.738,388.428,470.867z"/>
		<path fill="none" stroke="#C12910" stroke-width="11" stroke-linecap="round" stroke-linejoin="round" stroke-miterlimit="10" d="
			M432.084,419.598h46.875c13.037,0,23.145,3.662,29.883,10.4c5.713,5.713,8.789,13.77,8.789,23.73
			c0,16.553-8.936,26.953-21.973,31.787l25.049,36.621H494.34l-22.266-32.812h-17.432v32.812h-22.559V419.598z M477.494,469.402
			c10.986,0,17.285-5.859,17.285-14.795c0-9.668-6.738-14.648-17.725-14.648h-22.412v29.443H477.494z"/>
		<path fill="none" stroke="#C12910" stroke-width="11" stroke-linecap="round" stroke-linejoin="round" stroke-miterlimit="10" d="
			M537.995,419.598h77.344v20.068h-54.932v20.801h48.34v20.068h-48.34v21.533h55.664v20.068h-78.076V419.598z"/>
	</g>
	<path fill="none" stroke="#C12910" stroke-width="15" stroke-miterlimit="10" d="M662.075,737.674
		c-158.002,114.248-429.927,7.927-607.376-237.471C-122.749,254.804,449.404-158.923,626.857,86.478
		C804.298,331.875,820.07,623.427,662.075,737.674z"/>
</g>
</svg>
