<?xml version="1.0" encoding="utf-8"?>
<!-- Generator: Adobe Illustrator 16.0.0, SVG Export Plug-In . SVG Version: 6.00 Build 0)  -->
<svg version="1.2" baseProfile="tiny" id="Layer_1" xmlns="http://www.w3.org/2000/svg" xmlns:xlink="http://www.w3.org/1999/xlink"
	 x="0px" y="0px" width="5368.422px" height="1139.771px" viewBox="0 0 5368.422 1139.771" xml:space="preserve">
<g>
	
		<rect x="1922.455" y="336.825" transform="matrix(0.7097 -0.7045 0.7045 0.7097 220.7197 1692.3059)" fill="none" stroke="#1A1A1A" stroke-width="8" stroke-miterlimit="10" width="482.977" height="482.977"/>
	
		<rect x="1932.203" y="483.975" transform="matrix(0.9999 0.0132 -0.0132 0.9999 7.7375 -28.6614)" fill="none" width="484.765" height="175.451"/>
	
		<text transform="matrix(0.9999 0.0132 -0.0132 0.9999 1965.686 630.71)" fill="#1A1A1A" font-family="'Helvetica-Bold'" font-size="208">idea</text>
</g>
<rect x="3155.765" y="243.706" fill="none" stroke="#1A1A1A" stroke-width="7.8485" stroke-miterlimit="10" width="701.373" height="667.557"/>
<rect x="3243.562" y="523.989" fill="none" width="544.474" height="109.432"/>
<text transform="matrix(1.0211 0 0 1 3265.5669 604.3691)" font-family="'Helvetica-Light'" font-size="111.6415">STARTUP</text>
<g>
	<path fill="#1A1A1A" d="M5294.125,575.612c0,214.496-173.508,388.38-387.537,388.38c-214.035,0-387.541-173.884-387.541-388.38
		s173.506-388.379,387.541-388.379C5120.618,187.233,5294.125,361.116,5294.125,575.612z"/>
	<ellipse fill="none" cx="4912.586" cy="623.608" rx="387.539" ry="388.38"/>
	<text transform="matrix(1 0 0 1 4637.644 550.248)" fill="#EDEDE4" font-family="'Helvetica-Bold'" font-size="101">CHANGING </text>
	<text transform="matrix(1 0 0 1 4721.8511 671.4482)" fill="#EDEDE4" font-family="'Helvetica-Bold'" font-size="101">WORLD</text>
</g>
<rect x="253.997" y="202.915" transform="matrix(0.7165 0.6976 -0.6976 0.7165 582.9658 -279.4803)" fill="none" stroke="#1A1A1A" stroke-width="8.6689" stroke-miterlimit="10" width="762.604" height="749.014"/>
<text transform="matrix(1 0 0 1 507.4995 546.4844)" font-family="'Helvetica-Light'" font-size="91">PURE</text>
<text transform="matrix(1 0 0 1 239.5991 655.6855)" font-family="'Helvetica-Light'" font-size="91">CONSCIOUSNESS</text>
<g>
	
		<line fill="none" stroke="#1A1A1A" stroke-width="8" stroke-linecap="round" stroke-miterlimit="10" x1="1194.994" y1="576.886" x2="1195.494" y2="576.886"/>
	
		<line fill="none" stroke="#1A1A1A" stroke-width="8" stroke-linecap="round" stroke-miterlimit="10" stroke-dasharray="1.021,26.5452" x1="1222.039" y1="576.886" x2="1787.657" y2="576.886"/>
	
		<line fill="none" stroke="#1A1A1A" stroke-width="8" stroke-linecap="round" stroke-miterlimit="10" x1="1800.93" y1="576.886" x2="1801.43" y2="576.886"/>
</g>
<g>
	
		<line fill="none" stroke="#1A1A1A" stroke-width="8" stroke-linecap="round" stroke-miterlimit="10" x1="2525.997" y1="578.886" x2="2526.497" y2="578.886"/>
	
		<line fill="none" stroke="#1A1A1A" stroke-width="8" stroke-linecap="round" stroke-miterlimit="10" stroke-dasharray="1.021,26.5452" x1="2553.042" y1="578.886" x2="3118.659" y2="578.886"/>
	
		<line fill="none" stroke="#1A1A1A" stroke-width="8" stroke-linecap="round" stroke-miterlimit="10" x1="3131.933" y1="578.886" x2="3132.433" y2="578.886"/>
</g>
<g>
	
		<line fill="none" stroke="#1A1A1A" stroke-width="8" stroke-linecap="round" stroke-miterlimit="10" x1="3881.997" y1="577.886" x2="3882.497" y2="577.886"/>
	
		<line fill="none" stroke="#1A1A1A" stroke-width="8" stroke-linecap="round" stroke-miterlimit="10" stroke-dasharray="1.021,26.5452" x1="3909.042" y1="577.886" x2="4474.659" y2="577.886"/>
	
		<line fill="none" stroke="#1A1A1A" stroke-width="8" stroke-linecap="round" stroke-miterlimit="10" x1="4487.932" y1="577.886" x2="4488.432" y2="577.886"/>
</g>
</svg>
