<?xml version="1.0" encoding="utf-8"?>
<!-- Generator: Adobe Illustrator 16.0.0, SVG Export Plug-In . SVG Version: 6.00 Build 0)  -->
<svg version="1.2" baseProfile="tiny" id="Layer_1" xmlns="http://www.w3.org/2000/svg" xmlns:xlink="http://www.w3.org/1999/xlink"
	 x="0px" y="0px" width="3712px" height="794.961px" viewBox="0 0 3712 794.961" xml:space="preserve">
<g>
	<polygon fill="none" stroke="#1A1A1A" stroke-width="15" stroke-miterlimit="10" points="1721.243,398.979 1480.674,637.771 
		1241.871,397.196 1482.45,158.405 	"/>
	<g>
		<path fill="#1A1A1A" d="M315.924,257.796h4.229l41.691,52.568v-52.568h4.316v60.423h-3.366l-42.556-53.69v53.69h-4.315V257.796z"
			/>
		<path fill="#1A1A1A" d="M384.121,257.796h42.986v4.144h-38.498v23.737h34.614v4.144h-34.614v24.255h38.93v4.144h-43.418V257.796z"
			/>
		<path fill="#1A1A1A" d="M437.299,257.796h5.006l18.99,53.777l17.695-53.949h3.453l17.695,53.949l18.99-53.777h4.661
			l-21.925,60.855h-3.626l-17.695-52.482l-17.695,52.482h-3.625L437.299,257.796z"/>
		<path fill="#1A1A1A" d="M126.051,391.6c0-16.314,11.825-31.248,29.866-31.248c9.84,0,16.055,2.935,22.098,7.941l-2.936,3.366
			c-4.747-4.143-10.271-7.251-19.422-7.251c-14.674,0-24.945,12.43-24.945,27.191c0,15.624,9.754,27.276,25.896,27.276
			c7.683,0,14.847-3.193,19.249-6.905v-17.35h-20.199v-4.144h24.515v23.306c-5.438,4.834-13.896,9.063-23.737,9.063
			C137.358,422.847,126.051,408.777,126.051,391.6z"/>
		<path fill="#1A1A1A" d="M196.406,361.388h42.986v4.144h-38.498v23.737h34.614v4.144h-34.614v24.255h38.93v4.144h-43.418V361.388z"
			/>
		<path fill="#1A1A1A" d="M254.245,361.388h4.229l41.691,52.568v-52.568h4.316v60.423h-3.366l-42.556-53.69v53.69h-4.315V361.388z"
			/>
		<path fill="#1A1A1A" d="M322.442,361.388h42.986v4.144h-38.498v23.737h34.614v4.144h-34.614v24.255h38.93v4.144h-43.418V361.388z"
			/>
		<path fill="#1A1A1A" d="M380.281,361.388h25.377c7.424,0,13.38,2.331,17.005,5.956c2.849,2.849,4.575,6.906,4.575,11.394
			c0,10.1-7.51,15.883-17.695,17.264l19.939,25.81h-5.696l-19.25-25.033H384.77v25.033h-4.488V361.388z M405.141,392.722
			c10.1,0,17.609-5.093,17.609-13.984c0-8.114-6.388-13.207-17.351-13.207h-20.63v27.19H405.141z"/>
		<path fill="#1A1A1A" d="M465.655,360.956h4.315l28.14,60.855h-4.92l-7.683-16.918h-35.649l-7.683,16.918h-4.661L465.655,360.956z
			 M483.609,400.835l-15.883-34.959l-15.969,34.959H483.609z"/>
		<path fill="#1A1A1A" d="M519.867,365.531h-21.062v-4.144h46.612v4.144h-21.062v56.28h-4.489V365.531z"/>
		<path fill="#1A1A1A" d="M559.665,361.388h4.489v60.423h-4.489V361.388z"/>
		<path fill="#1A1A1A" d="M580.038,391.6c0-16.487,12.171-31.248,30.47-31.248c18.3,0,30.299,14.588,30.299,31.248
			c0,16.487-12.172,31.247-30.471,31.247C592.036,422.847,580.038,408.259,580.038,391.6z M636.145,391.6
			c0-14.934-10.876-27.191-25.809-27.191c-14.934,0-25.637,12.085-25.637,27.191c0,14.933,10.876,27.19,25.809,27.19
			C625.441,418.79,636.145,406.705,636.145,391.6z"/>
		<path fill="#1A1A1A" d="M656.091,361.388h4.229l41.691,52.568v-52.568h4.316v60.423h-3.366l-42.556-53.69v53.69h-4.315V361.388z"
			/>
		<path fill="#1A1A1A" d="M291.536,464.979h4.489v60.423h-4.489V464.979z"/>
		<path fill="#1A1A1A" d="M314.585,464.979h20.112c18.99,0,32.11,13.034,32.11,30.212c0,17.004-13.12,30.211-32.11,30.211h-20.112
			V464.979z M334.697,521.259c16.832,0,27.449-11.48,27.449-26.068c0-14.329-10.617-26.068-27.449-26.068h-15.624v52.136H334.697z"
			/>
		<path fill="#1A1A1A" d="M382.092,464.979h42.986v4.144H386.58v23.737h34.614v4.144H386.58v24.255h38.93v4.144h-43.418V464.979z"/>
		<path fill="#1A1A1A" d="M462.892,464.548h4.315l28.14,60.855h-4.92l-7.683-16.918h-35.649l-7.683,16.918h-4.661L462.892,464.548z
			 M480.846,504.427l-15.883-34.959l-15.969,34.959H480.846z"/>
		<path fill="#1A1A1A" d="M502.948,516.598l2.935-3.366c6.646,6.128,12.775,8.977,21.666,8.977c9.063,0,15.279-5.093,15.279-12.171
			c0-6.388-3.367-10.099-17.092-12.861c-14.501-2.935-20.371-7.855-20.371-17.178c0-8.977,8.2-15.883,19.422-15.883
			c8.805,0,14.588,2.417,20.717,7.337l-2.849,3.539c-5.697-4.92-11.395-6.819-18.041-6.819c-8.891,0-14.761,5.093-14.761,11.567
			c0,6.388,3.28,10.272,17.609,13.207c13.983,2.849,19.854,7.855,19.854,16.833c0,9.754-8.373,16.487-20.026,16.487
			C517.622,526.266,510.199,523.072,502.948,516.598z"/>
	</g>
	
		<rect x="2177.646" y="163.274" fill="none" stroke="#1A1A1A" stroke-width="15" stroke-miterlimit="10" width="492.199" height="468.474"/>
	<g>
		<path fill="#1A1A1A" d="M3678.343,385.682c0,150.521-121.783,272.566-272.001,272.566c-150.204,0-271.95-122.045-271.95-272.566
			c0-150.554,121.746-272.573,271.95-272.573C3556.56,113.108,3678.343,235.128,3678.343,385.682z"/>
		<g>
			<path fill="#EDEDE4" d="M3310.31,247.603h11.762l27.166,35.697v-35.697h12.59v57.977h-10.851l-28.077-36.857v36.857h-12.59
				V247.603z"/>
			<path fill="#EDEDE4" d="M3375.734,247.603h43.731v11.347h-31.059v11.761h27.332v11.347h-27.332v12.175h31.473v11.347h-44.146
				V247.603z"/>
			<path fill="#EDEDE4" d="M3426.749,247.603h13.666l12.01,39.259l13.004-39.425h10.933l13.004,39.425l12.009-39.259h13.335
				l-19.795,58.391h-11.099l-13.086-37.934l-13.087,37.934h-11.098L3426.749,247.603z"/>
			<path fill="#EDEDE4" d="M3234.781,375.972c0-16.482,12.838-29.982,30.396-29.982c10.437,0,16.73,2.816,22.777,7.951l-8.034,9.69
				c-4.473-3.727-8.448-5.88-15.157-5.88c-9.276,0-16.647,8.2-16.647,18.221c0,10.602,7.288,18.387,17.559,18.387
				c4.639,0,8.779-1.16,12.01-3.479v-8.283h-12.838v-11.016h25.179v25.179c-5.964,5.052-14.163,9.193-24.765,9.193
				C3247.205,405.955,3234.781,393.283,3234.781,375.972z"/>
			<path fill="#EDEDE4" d="M3302.277,346.984h12.755v46.382h28.906v11.595h-41.661V346.984z"/>
			<path fill="#EDEDE4" d="M3347.66,375.972c0-16.482,13.004-29.982,30.894-29.982c17.891,0,30.729,13.335,30.729,29.982
				c0,16.482-13.004,29.982-30.895,29.982C3360.498,405.955,3347.66,392.62,3347.66,375.972z M3395.947,375.972
				c0-9.939-7.289-18.221-17.56-18.221c-10.27,0-17.393,8.117-17.393,18.221c0,9.939,7.288,18.222,17.559,18.222
				S3395.947,386.077,3395.947,375.972z"/>
			<path fill="#EDEDE4" d="M3420.622,346.984h26.918c6.626,0,11.844,1.822,15.157,5.135c2.65,2.65,3.976,5.881,3.976,10.022
				c0,6.543-3.479,10.188-7.62,12.506c6.709,2.568,10.851,6.46,10.851,14.412c0,10.602-8.614,15.902-21.7,15.902h-27.581V346.984z
				 M3444.808,370.423c5.632,0,9.193-1.822,9.193-6.294c0-3.81-2.982-5.963-8.365-5.963h-12.59v12.258H3444.808z M3448.203,393.78
				c5.632,0,9.027-1.988,9.027-6.46c0-3.893-2.898-6.295-9.441-6.295h-14.743v12.755H3448.203z"/>
			<path fill="#EDEDE4" d="M3500.293,346.569h11.762l24.847,58.392h-13.334l-5.301-13.003h-24.517l-5.301,13.003h-13.003
				L3500.293,346.569z M3513.711,380.693l-7.703-18.801l-7.702,18.801H3513.711z"/>
			<path fill="#EDEDE4" d="M3545.84,346.984h12.755v46.382h28.906v11.595h-41.661V346.984z"/>
			<path fill="#EDEDE4" d="M3255.031,458.125h-17.642v-11.761h48.038v11.761h-17.642v46.216h-12.755V458.125z"/>
			<path fill="#EDEDE4" d="M3295.195,446.364h26.504c7.372,0,13.087,2.071,16.896,5.881c3.23,3.23,4.97,7.786,4.97,13.417
				c0,9.359-5.053,15.24-12.424,17.973l14.163,20.706h-14.908l-12.59-18.553h-9.856v18.553h-12.755V446.364z M3320.871,474.524
				c6.212,0,9.773-3.313,9.773-8.365c0-5.466-3.81-8.283-10.021-8.283h-12.673v16.648H3320.871z"/>
			<path fill="#EDEDE4" d="M3355.071,446.364h43.731v11.347h-31.059v11.761h27.332v11.347h-27.332v12.175h31.473v11.347h-44.146
				V446.364z"/>
			<path fill="#EDEDE4" d="M3410.56,446.364h11.762l27.166,35.698v-35.698h12.59v57.978h-10.851l-28.077-36.857v36.857h-12.59
				V446.364z"/>
			<path fill="#EDEDE4" d="M3475.984,446.364h22.611c18.222,0,30.811,12.507,30.811,28.989c0,16.316-12.589,28.989-30.811,28.989
				h-22.611V446.364z M3498.596,492.829c10.436,0,17.476-7.04,17.476-17.476c0-10.27-7.04-17.476-17.476-17.476h-9.856v34.952
				H3498.596z"/>
			<path fill="#EDEDE4" d="M3535.943,495.893l7.537-9.028c5.218,4.307,10.685,7.04,17.311,7.04c5.218,0,8.365-2.07,8.365-5.632
				c0-3.23-1.987-4.887-11.679-7.372c-11.678-2.981-19.215-6.212-19.215-17.89c0-10.519,8.448-17.476,20.292-17.476
				c8.448,0,15.654,2.65,21.534,7.372l-6.626,9.607c-5.135-3.561-10.188-5.715-15.074-5.715c-4.886,0-7.454,2.236-7.454,5.218
				c0,3.81,2.485,5.052,12.507,7.62c11.761,3.064,18.387,7.289,18.387,17.559c0,11.513-8.779,17.973-21.285,17.973
				C3551.763,505.169,3542.901,502.105,3535.943,495.893z"/>
		</g>
	</g>
	<polygon fill="none" stroke="#1A1A1A" stroke-width="15" stroke-miterlimit="10" points="417.096,772.48 33.662,399.084 
		400.379,22.48 783.816,395.849 	"/>
	<g>
		
			<line fill="none" stroke="#1A1A1A" stroke-width="14.0361" stroke-linecap="round" stroke-miterlimit="10" x1="801.527" y1="397.083" x2="801.878" y2="397.083"/>
		
			<line fill="none" stroke="#1A1A1A" stroke-width="14.0361" stroke-linecap="round" stroke-miterlimit="10" stroke-dasharray="0.7166,18.631" x1="820.509" y1="397.083" x2="1217.494" y2="397.083"/>
		
			<line fill="none" stroke="#1A1A1A" stroke-width="14.0361" stroke-linecap="round" stroke-miterlimit="10" x1="1226.809" y1="397.083" x2="1227.16" y2="397.083"/>
	</g>
	<g>
		
			<line fill="none" stroke="#1A1A1A" stroke-width="14.0361" stroke-linecap="round" stroke-miterlimit="10" x1="1735.661" y1="398.48" x2="1736.011" y2="398.48"/>
		
			<line fill="none" stroke="#1A1A1A" stroke-width="14.0361" stroke-linecap="round" stroke-miterlimit="10" stroke-dasharray="0.7165,18.6284" x1="1754.64" y1="398.48" x2="2151.569" y2="398.48"/>
		
			<line fill="none" stroke="#1A1A1A" stroke-width="14.0361" stroke-linecap="round" stroke-miterlimit="10" x1="2160.884" y1="398.48" x2="2161.234" y2="398.48"/>
	</g>
	<g>
		
			<line fill="none" stroke="#1A1A1A" stroke-width="14.386" stroke-linecap="round" stroke-miterlimit="10" x1="2687.27" y1="397.798" x2="2687.629" y2="397.798"/>
		
			<line fill="none" stroke="#1A1A1A" stroke-width="14.386" stroke-linecap="round" stroke-miterlimit="10" stroke-dasharray="0.72,18.7201" x1="2706.35" y1="397.798" x2="3124.672" y2="397.798"/>
		
			<line fill="none" stroke="#1A1A1A" stroke-width="14.386" stroke-linecap="round" stroke-miterlimit="10" x1="3134.032" y1="397.798" x2="3134.392" y2="397.798"/>
	</g>
	<g>
		<path fill="#1A1A1A" d="M1351.028,378.904h11.309v5.729c2.753-3.72,6.548-6.473,12.426-6.473c9.3,0,18.153,7.292,18.153,20.758
			c0,13.318-8.705,20.609-18.153,20.609c-6.027,0-9.747-2.753-12.426-5.952v17.112h-11.309V378.904z M1381.607,398.77
			c0-6.622-4.464-11.011-9.747-11.011c-5.282,0-9.672,4.39-9.672,11.16c0,6.622,4.39,11.011,9.672,11.011
			C1377.144,409.93,1381.607,405.615,1381.607,398.77z"/>
		<path fill="#1A1A1A" d="M1401.244,378.904h11.309v8.036c2.307-5.506,6.026-9.077,12.723-8.78v11.83h-0.595
			c-7.515,0-12.128,4.539-12.128,14.062v14.731h-11.309V378.904z"/>
		<path fill="#1A1A1A" d="M1429.291,398.918c0-11.458,9.226-20.758,21.65-20.758c12.352,0,21.503,9.151,21.503,20.758
			c0,11.458-9.227,20.758-21.651,20.758C1438.442,419.676,1429.291,410.525,1429.291,398.918z M1461.284,398.918
			c0-5.878-4.241-11.012-10.491-11.012c-6.473,0-10.342,4.985-10.342,11.012c0,5.878,4.241,11.011,10.49,11.011
			C1457.415,409.93,1461.284,404.945,1461.284,398.918z"/>
		<path fill="#1A1A1A" d="M1474.745,430.465v-8.854c0.893,0.149,1.562,0.223,2.381,0.223c2.381,0,4.018-1.265,4.018-4.613v-38.317
			h11.31v39.21c0,8.779-4.465,12.797-12.798,12.797C1477.572,430.911,1476.308,430.762,1474.745,430.465z M1480.846,364.47h11.904
			v10.044h-11.904V364.47z"/>
		<path fill="#1A1A1A" d="M1501.154,398.918c0-11.384,8.109-20.758,19.717-20.758c13.317,0,19.419,10.342,19.419,21.651
			c0,0.893-0.075,1.935-0.149,2.976h-27.752c1.116,5.134,4.688,7.812,9.747,7.812c3.794,0,6.547-1.19,9.672-4.092l6.473,5.729
			c-3.72,4.613-9.076,7.44-16.294,7.44C1510.008,419.676,1501.154,411.269,1501.154,398.918z M1529.278,395.719
			c-0.67-5.06-3.646-8.482-8.407-8.482c-4.688,0-7.738,3.348-8.631,8.482H1529.278z"/>
		<path fill="#1A1A1A" d="M1546.758,398.918c0-11.384,8.705-20.758,20.907-20.758c7.514,0,12.127,2.828,15.848,6.994l-6.622,6.696
			c-2.455-2.306-4.836-3.943-9.301-3.943c-5.654,0-9.672,4.985-9.672,11.012c0,6.101,3.943,11.011,10.118,11.011
			c3.795,0,6.399-1.637,9.152-4.241l6.621,6.696c-3.869,4.241-8.333,7.291-16.294,7.291
			C1555.537,419.676,1546.758,410.451,1546.758,398.918z"/>
		<path fill="#1A1A1A" d="M1593.031,407.475v-18.898h-4.762v-9.672h4.762v-10.193h11.31v10.193h9.375v9.672h-9.375v17.038
			c0,2.604,1.116,3.869,3.646,3.869c2.083,0,3.943-0.521,5.58-1.414v9.077c-2.381,1.414-5.134,2.306-8.928,2.306
			C1597.719,419.453,1593.031,416.701,1593.031,407.475z"/>
	</g>
	<g>
		<path fill="#1A1A1A" d="M2281.958,347.741h-30.808l2.61-9.529h71.928l-2.611,9.529h-30.807l-21.931,81.848h-10.312
			L2281.958,347.741z"/>
		<path fill="#1A1A1A" d="M2343.309,338.211h65.4l-2.61,9.399h-55.088l-8.354,31.199h49.213l-2.61,9.399h-49.083l-8.615,31.982
			h55.74l-2.48,9.399h-66.053L2343.309,338.211z"/>
		<path fill="#1A1A1A" d="M2461.183,337.559h9.922l16.97,92.03H2477.5l-4.177-24.15h-49.866l-17.23,24.15h-11.357L2461.183,337.559z
			 M2471.626,396.171l-8.224-46.863l-33.418,46.863H2471.626z"/>
		<path fill="#1A1A1A" d="M2527.885,338.211h9.66l19.712,49.866l46.602-49.866h11.488l-24.542,91.377h-10.442l19.842-74.016
			l-46.342,48.952h-0.522l-19.972-48.822l-19.842,73.885h-10.183L2527.885,338.211z"/>
	</g>
</g>
</svg>
